HIERARCHY
ROOT joint_0
{
	OFFSET 0.000000 0.000000 0.000000
	CHANNELS 6 Xposition Yposition Zposition Zrotation Yrotation Xrotation 
	JOINT joint_1
	{
		OFFSET 7.566162 2.250183 114.799927
		CHANNELS 3 Zrotation Yrotation Xrotation
		JOINT joint_2
		{
			OFFSET -5.201660 -0.414001 104.936035
			CHANNELS 3 Zrotation Yrotation Xrotation
			JOINT joint_3
			{
				OFFSET -6.923584 -0.419739 104.718018
				CHANNELS 3 Zrotation Yrotation Xrotation
				JOINT joint_4
				{
					OFFSET 3.108887 2.881104 149.449951
					CHANNELS 3 Zrotation Yrotation Xrotation
					JOINT joint_5
					{
						OFFSET 19.988770 5.920349 90.786987
						CHANNELS 3 Zrotation Yrotation Xrotation
						End Site
						{
							OFFSET 0.000000 0.000000 0.000000
						}
					}
				}
				JOINT joint_6
				{
					OFFSET 9.283936 -30.015930 84.410034
					CHANNELS 3 Zrotation Yrotation Xrotation
					JOINT joint_7
					{
						OFFSET 47.243164 -155.716736 -23.241089
						CHANNELS 3 Zrotation Yrotation Xrotation
						JOINT joint_8
						{
							OFFSET 31.323730 -15.356873 -268.798950
							CHANNELS 3 Zrotation Yrotation Xrotation
							JOINT joint_9
							{
								OFFSET 28.122314 -2.114624 -262.450012
								CHANNELS 3 Zrotation Yrotation Xrotation
								End Site
								{
									OFFSET 0.000000 0.000000 0.000000
								}
							}
						}
					}
				}
				JOINT joint_10
				{
					OFFSET -5.580566 33.311218 83.498047
					CHANNELS 3 Zrotation Yrotation Xrotation
					JOINT joint_11
					{
						OFFSET -22.773438 160.515381 -27.138062
						CHANNELS 3 Zrotation Yrotation Xrotation
						JOINT joint_12
						{
							OFFSET 27.004395 30.848877 -267.937988
							CHANNELS 3 Zrotation Yrotation Xrotation
							JOINT joint_13
							{
								OFFSET 32.625000 14.824585 -261.518005
								CHANNELS 3 Zrotation Yrotation Xrotation
								End Site
								{
									OFFSET 0.000000 0.000000 0.000000
								}
							}
						}
					}
				}
			}
		}
	}
	JOINT joint_14
	{
		OFFSET 20.623535 -83.447632 -106.174011
		CHANNELS 3 Zrotation Yrotation Xrotation
		JOINT joint_15
		{
			OFFSET 0.661865 -23.563843 -459.915039
			CHANNELS 3 Zrotation Yrotation Xrotation
			JOINT joint_16
			{
				OFFSET -23.461670 -28.727966 -444.760971
				CHANNELS 3 Zrotation Yrotation Xrotation
				JOINT joint_17
				{
					OFFSET 178.992920 54.047363 -80.113001
					CHANNELS 3 Zrotation Yrotation Xrotation
					End Site
					{
						OFFSET 0.000000 0.000000 0.000000
					}
				}
			}
		}
	}
	JOINT joint_18
	{
		OFFSET -19.571533 84.686279 -105.380005
		CHANNELS 3 Zrotation Yrotation Xrotation
		JOINT joint_19
		{
			OFFSET -22.949951 3.639404 -459.933044
			CHANNELS 3 Zrotation Yrotation Xrotation
			JOINT joint_20
			{
				OFFSET -33.690674 4.092651 -445.010971
				CHANNELS 3 Zrotation Yrotation Xrotation
				JOINT joint_21
				{
					OFFSET 187.419678 18.953857 -76.759001
					CHANNELS 3 Zrotation Yrotation Xrotation
					End Site
					{
						OFFSET 0.000000 0.000000 0.000000
					}
				}
			}
		}
	}
}
MOTION
Frames: 7
Frame Time: 0.016667
-2970.353271 905.107361 1098.774048 -14.659236 2.712349 -0.759072 1.068777 9.111233 2.572643 0.470289 -1.256150 -0.516290 0.575582 1.722171 0.321426 1.291650 -5.496836 -2.977616 0.000000 0.000000 0.000000 0.551527 12.792533 -9.708330 -16.192668 4.467751 -20.216600 -179.458299 -63.217188 -115.928834 0.000000 0.000000 0.000000 5.683966 10.746300 -0.285607 18.031292 9.753702 12.012565 -179.877410 -66.579908 130.218021 0.000000 0.000000 0.000000 1.320144 -21.332672 -2.202992 -3.374145 42.798762 -5.592722 -9.548182 -11.521026 0.101627 0.000000 0.000000 0.000000 0.108075 1.098563 2.598794 0.885824 31.670876 -6.299865 -4.743609 4.619850 -2.116365 0.000000 0.000000 0.000000 
-2962.638916 901.207703 1096.369019 -13.942200 1.934250 -1.018392 0.707492 9.523543 3.412179 0.697173 -1.174282 -0.729754 0.973345 1.673771 0.440955 1.189655 -5.010337 -2.791699 0.000000 0.000000 0.000000 -0.492274 11.940708 -10.008936 -17.729602 3.805014 -20.638682 -179.289861 -60.921828 -114.201082 0.000000 0.000000 0.000000 5.350035 11.689202 0.009757 16.955708 9.934381 11.157091 179.690215 -66.739185 132.298434 0.000000 0.000000 0.000000 1.877915 -20.707764 -2.416946 -3.023725 35.581678 -4.755975 -6.408275 -10.169728 0.712915 0.000000 0.000000 0.000000 0.025448 0.743707 3.737029 0.931648 34.504207 -6.866692 -5.631174 5.744891 -2.535428 0.000000 0.000000 0.000000 
-2954.819092 896.707642 1093.647949 -12.788522 1.147050 -1.036211 0.233454 10.054606 3.736848 0.743113 -1.234587 -0.734177 1.146355 1.660169 0.551622 1.084650 -4.546041 -2.570268 0.000000 0.000000 0.000000 -1.353207 11.020388 -10.147308 -19.599024 3.046598 -20.933668 -178.957835 -58.204061 -112.435464 0.000000 0.000000 0.000000 5.177847 12.422941 0.294794 16.140221 9.967965 10.603597 179.299313 -66.597301 134.019573 0.000000 0.000000 0.000000 2.103934 -19.604564 -2.861923 -2.710507 29.576535 -4.108977 -4.560989 -7.901673 0.665865 0.000000 0.000000 0.000000 -0.235591 0.321074 4.802393 0.758164 37.407953 -7.498177 -6.712522 6.680398 -3.002435 0.000000 0.000000 0.000000 
-2946.544678 891.418701 1090.302979 -11.488207 0.507467 -1.001815 -0.261038 10.392920 3.893943 0.674973 -1.325427 -0.749889 1.189495 1.707617 0.639032 0.972112 -4.084975 -2.304626 0.000000 0.000000 0.000000 -1.918827 10.115485 -10.068070 -21.868620 2.181197 -21.110855 -178.368979 -54.800945 -110.871901 0.000000 0.000000 0.000000 5.317048 12.875396 0.572848 15.632935 9.834674 10.474614 178.951636 -65.992813 135.227989 0.000000 0.000000 0.000000 1.848734 -18.739068 -3.065918 -2.921653 27.092690 -4.329704 -4.419185 -6.296431 0.209008 0.000000 0.000000 0.000000 -0.634832 -0.257838 6.093191 0.447842 40.398689 -8.466686 -7.918820 7.118821 -3.464188 0.000000 0.000000 0.000000 
-2938.165283 885.529419 1086.640991 -10.212642 -0.010120 -1.076016 -0.749955 10.570724 4.159397 0.593237 -1.393815 -0.884064 1.230696 1.788932 0.702486 0.855819 -3.639822 -2.008806 0.000000 0.000000 0.000000 -2.316943 9.109864 -9.821902 -24.617856 1.197131 -21.159172 -177.421642 -50.839434 -109.360894 0.000000 0.000000 0.000000 5.613323 13.131694 0.845078 15.318543 9.585641 10.623386 178.644629 -65.185560 136.159273 0.000000 0.000000 0.000000 1.444997 -18.056385 -2.953545 -3.386325 26.704394 -5.025003 -4.963103 -5.531173 -0.243513 0.000000 0.000000 0.000000 -1.120520 -0.992484 7.684082 0.051648 43.474582 -9.655064 -9.242318 7.292868 -3.944747 0.000000 0.000000 0.000000 
-2930.219238 879.532471 1083.833008 -9.166381 -0.491382 -1.221955 -1.211023 10.816898 4.324990 0.574122 -1.472272 -0.985839 1.336648 1.884926 0.721716 0.755705 -3.298795 -1.736266 0.000000 0.000000 0.000000 -2.563423 7.836948 -9.362343 -27.922154 0.057528 -21.000236 -176.095401 -46.477611 -107.507284 0.000000 0.000000 0.000000 5.905179 13.212570 1.022618 15.008535 9.271998 10.813023 178.345296 -64.633061 137.182490 0.000000 0.000000 0.000000 1.161817 -17.353760 -2.713715 -3.740459 26.779176 -5.534040 -5.424540 -5.132061 -0.545693 0.000000 0.000000 0.000000 -1.582037 -1.796844 9.235422 -0.361413 46.455793 -10.645857 -10.646129 7.523951 -4.463991 0.000000 0.000000 0.000000 
-2922.963135 873.153442 1082.141968 -8.381620 -0.992405 -1.458874 -1.661335 11.285466 4.274071 0.650011 -1.583308 -0.964975 1.535285 2.014998 0.669602 0.681538 -3.130496 -1.505783 0.000000 0.000000 0.000000 -2.672947 6.304369 -8.620903 -31.521061 -1.169362 -20.514539 -174.274094 -42.130913 -105.499686 0.000000 0.000000 0.000000 6.197391 13.023498 1.029382 14.729452 8.846609 11.140318 178.050176 -64.214309 138.361772 0.000000 0.000000 0.000000 1.107997 -16.565924 -2.356347 -3.839999 27.078005 -5.565134 -5.540873 -5.110140 -0.592689 0.000000 0.000000 0.000000 -2.029659 -2.619582 10.718071 -0.809470 49.325827 -11.350102 -12.309677 7.857542 -5.087126 0.000000 0.000000 0.000000 
